<?xml version="1.0" encoding="utf-8" standalone="no"?>
<!DOCTYPE svg PUBLIC "-//W3C//DTD SVG 1.1//EN"
  "http://www.w3.org/Graphics/SVG/1.1/DTD/svg11.dtd">
<svg xmlns:xlink="http://www.w3.org/1999/xlink" width="720pt" height="468pt" viewBox="0 0 720 468" xmlns="http://www.w3.org/2000/svg" version="1.1">
 <metadata>
  <rdf:RDF xmlns:dc="http://purl.org/dc/elements/1.1/" xmlns:cc="http://creativecommons.org/ns#" xmlns:rdf="http://www.w3.org/1999/02/22-rdf-syntax-ns#">
   <cc:Work>
    <dc:type rdf:resource="http://purl.org/dc/dcmitype/StillImage"/>
    <dc:format>image/svg+xml</dc:format>
    <dc:creator>
     <cc:Agent>
      <dc:title>Matplotlib v3.11.1, https://matplotlib.org/</dc:title>
     </cc:Agent>
    </dc:creator>
   </cc:Work>
  </rdf:RDF>
 </metadata>
 <defs>
  <style type="text/css">*{stroke-linejoin: round; stroke-linecap: butt}</style>
 </defs>
 <g id="figure_1">
  <g id="patch_1">
   <path d="M 0 468
L 720 468
L 720 0
L 0 0
z
" style="fill: #f7f9fc"/>
  </g>
  <g id="axes_1">
   <g id="line2d_1">
    <path d="M 79.623929 166.25043
L 241.037141 166.25043
" clip-path="url(#p9a85bb36e3)" style="fill: none; stroke: #2563eb; stroke-width: 3; stroke-linecap: square"/>
    <defs>
     <path id="mf2b1df0b18" d="M 0 3.5
C 0.928211 3.5 1.81853 3.131218 2.474874 2.474874
C 3.131218 1.81853 3.5 0.928211 3.5 0
C 3.5 -0.928211 3.131218 -1.81853 2.474874 -2.474874
C 1.81853 -3.131218 0.928211 -3.5 0 -3.5
C -0.928211 -3.5 -1.81853 -3.131218 -2.474874 -2.474874
C -3.131218 -1.81853 -3.5 -0.928211 -3.5 0
C -3.5 0.928211 -3.131218 1.81853 -2.474874 2.474874
C -1.81853 3.131218 -0.928211 3.5 0 3.5
z
" style="stroke: #2563eb"/>
    </defs>
    <g clip-path="url(#p9a85bb36e3)">
     <use xlink:href="#mf2b1df0b18" x="79.623929" y="166.25043" style="fill: #2563eb; stroke: #2563eb"/>
     <use xlink:href="#mf2b1df0b18" x="241.037141" y="166.25043" style="fill: #2563eb; stroke: #2563eb"/>
    </g>
   </g>
   <g id="patch_2">
    <path d="M 81.624451 166.25043
Q 100.610198 166.25043 117.583484 166.25043
" style="fill: none; stroke: #0f766e; stroke-width: 1.8; stroke-linecap: round"/>
    <path d="M 113.583484 164.25043
L 117.583484 166.25043
L 113.583484 168.25043
" style="fill: none; stroke: #0f766e; stroke-width: 1.8; stroke-linecap: round"/>
   </g>
   <g id="text_1">
    <!-- ux -->
    <g style="fill: #0f766e" transform="translate(125.465281 162.376513) scale(0.1 -0.1)">
     <defs>
      <path id="DejaVuSans-58" d="M 544 1381
L 544 3500
L 1119 3500
L 1119 1403
Q 1119 906 1312 657
Q 1506 409 1894 409
Q 2359 409 2629 706
Q 2900 1003 2900 1516
L 2900 3500
L 3475 3500
L 3475 0
L 2900 0
L 2900 538
Q 2691 219 2414 64
Q 2138 -91 1772 -91
Q 1169 -91 856 284
Q 544 659 544 1381
z
M 1991 3584
L 1991 3584
z
" transform="scale(0.015625)"/>
      <path id="DejaVuSans-5b" d="M 3513 3500
L 2247 1797
L 3578 0
L 2900 0
L 1881 1375
L 863 0
L 184 0
L 1544 1831
L 300 3500
L 978 3500
L 1906 2253
L 2834 3500
L 3513 3500
z
" transform="scale(0.015625)"/>
     </defs>
     <use xlink:href="#DejaVuSans-58"/>
     <use xlink:href="#DejaVuSans-5b" transform="translate(63.375 0)"/>
    </g>
   </g>
   <g id="patch_3">
    <path d="M 243.037663 166.25043
Q 262.02341 166.25043 278.996696 166.25043
" style="fill: none; stroke: #0f766e; stroke-width: 1.8; stroke-linecap: round"/>
    <path d="M 274.996696 164.25043
L 278.996696 166.25043
L 274.996696 168.25043
" style="fill: none; stroke: #0f766e; stroke-width: 1.8; stroke-linecap: round"/>
   </g>
   <g id="text_2">
    <!-- ux -->
    <g style="fill: #0f766e" transform="translate(286.878493 162.376513) scale(0.1 -0.1)">
     <use xlink:href="#DejaVuSans-58"/>
     <use xlink:href="#DejaVuSans-5b" transform="translate(63.375 0)"/>
    </g>
   </g>
   <g id="text_3">
    <!-- Horizontal member · stretching only -->
    <g transform="translate(79.623929 214.674394) scale(0.1 -0.1)">
     <defs>
      <path id="DejaVuSans-2b" d="M 628 4666
L 1259 4666
L 1259 2753
L 3553 2753
L 3553 4666
L 4184 4666
L 4184 0
L 3553 0
L 3553 2222
L 1259 2222
L 1259 0
L 628 0
L 628 4666
z
" transform="scale(0.015625)"/>
      <path id="DejaVuSans-52" d="M 1959 3097
Q 1497 3097 1228 2736
Q 959 2375 959 1747
Q 959 1119 1226 758
Q 1494 397 1959 397
Q 2419 397 2687 759
Q 2956 1122 2956 1747
Q 2956 2369 2687 2733
Q 2419 3097 1959 3097
z
M 1959 3584
Q 2709 3584 3137 3096
Q 3566 2609 3566 1747
Q 3566 888 3137 398
Q 2709 -91 1959 -91
Q 1206 -91 779 398
Q 353 888 353 1747
Q 353 2609 779 3096
Q 1206 3584 1959 3584
z
" transform="scale(0.015625)"/>
      <path id="DejaVuSans-55" d="M 2631 2963
Q 2534 3019 2420 3045
Q 2306 3072 2169 3072
Q 1681 3072 1420 2755
Q 1159 2438 1159 1844
L 1159 0
L 581 0
L 581 3500
L 1159 3500
L 1159 2956
Q 1341 3275 1631 3429
Q 1922 3584 2338 3584
Q 2397 3584 2469 3576
Q 2541 3569 2628 3553
L 2631 2963
z
" transform="scale(0.015625)"/>
      <path id="DejaVuSans-4c" d="M 603 3500
L 1178 3500
L 1178 0
L 603 0
L 603 3500
z
M 603 4863
L 1178 4863
L 1178 4134
L 603 4134
L 603 4863
z
" transform="scale(0.015625)"/>
      <path id="DejaVuSans-5d" d="M 353 3500
L 3084 3500
L 3084 2975
L 922 459
L 3084 459
L 3084 0
L 275 0
L 275 525
L 2438 3041
L 353 3041
L 353 3500
z
" transform="scale(0.015625)"/>
      <path id="DejaVuSans-51" d="M 3513 2113
L 3513 0
L 2938 0
L 2938 2094
Q 2938 2591 2744 2837
Q 2550 3084 2163 3084
Q 1697 3084 1428 2787
Q 1159 2491 1159 1978
L 1159 0
L 581 0
L 581 3500
L 1159 3500
L 1159 2956
Q 1366 3272 1645 3428
Q 1925 3584 2291 3584
Q 2894 3584 3203 3211
Q 3513 2838 3513 2113
z
" transform="scale(0.015625)"/>
      <path id="DejaVuSans-57" d="M 1172 4494
L 1172 3500
L 2356 3500
L 2356 3053
L 1172 3053
L 1172 1153
Q 1172 725 1289 603
Q 1406 481 1766 481
L 2356 481
L 2356 0
L 1766 0
Q 1100 0 847 248
Q 594 497 594 1153
L 594 3053
L 172 3053
L 172 3500
L 594 3500
L 594 4494
L 1172 4494
z
" transform="scale(0.015625)"/>
      <path id="DejaVuSans-44" d="M 2194 1759
Q 1497 1759 1228 1600
Q 959 1441 959 1056
Q 959 750 1161 570
Q 1363 391 1709 391
Q 2188 391 2477 730
Q 2766 1069 2766 1631
L 2766 1759
L 2194 1759
z
M 3341 1997
L 3341 0
L 2766 0
L 2766 531
Q 2569 213 2275 61
Q 1981 -91 1556 -91
Q 1019 -91 701 211
Q 384 513 384 1019
Q 384 1609 779 1909
Q 1175 2209 1959 2209
L 2766 2209
L 2766 2266
Q 2766 2663 2505 2880
Q 2244 3097 1772 3097
Q 1472 3097 1187 3025
Q 903 2953 641 2809
L 641 3341
Q 956 3463 1253 3523
Q 1550 3584 1831 3584
Q 2591 3584 2966 3190
Q 3341 2797 3341 1997
z
" transform="scale(0.015625)"/>
      <path id="DejaVuSans-4f" d="M 603 4863
L 1178 4863
L 1178 0
L 603 0
L 603 4863
z
" transform="scale(0.015625)"/>
      <path id="DejaVuSans-3" transform="scale(0.015625)"/>
      <path id="DejaVuSans-50" d="M 3328 2828
Q 3544 3216 3844 3400
Q 4144 3584 4550 3584
Q 5097 3584 5394 3201
Q 5691 2819 5691 2113
L 5691 0
L 5113 0
L 5113 2094
Q 5113 2597 4934 2840
Q 4756 3084 4391 3084
Q 3944 3084 3684 2787
Q 3425 2491 3425 1978
L 3425 0
L 2847 0
L 2847 2094
Q 2847 2600 2669 2842
Q 2491 3084 2119 3084
Q 1678 3084 1418 2786
Q 1159 2488 1159 1978
L 1159 0
L 581 0
L 581 3500
L 1159 3500
L 1159 2956
Q 1356 3278 1631 3431
Q 1906 3584 2284 3584
Q 2666 3584 2933 3390
Q 3200 3197 3328 2828
z
" transform="scale(0.015625)"/>
      <path id="DejaVuSans-48" d="M 3597 1894
L 3597 1613
L 953 1613
Q 991 1019 1311 708
Q 1631 397 2203 397
Q 2534 397 2845 478
Q 3156 559 3463 722
L 3463 178
Q 3153 47 2828 -22
Q 2503 -91 2169 -91
Q 1331 -91 842 396
Q 353 884 353 1716
Q 353 2575 817 3079
Q 1281 3584 2069 3584
Q 2775 3584 3186 3129
Q 3597 2675 3597 1894
z
M 3022 2063
Q 3016 2534 2758 2815
Q 2500 3097 2075 3097
Q 1594 3097 1305 2825
Q 1016 2553 972 2059
L 3022 2063
z
" transform="scale(0.015625)"/>
      <path id="DejaVuSans-45" d="M 3116 1747
Q 3116 2381 2855 2742
Q 2594 3103 2138 3103
Q 1681 3103 1420 2742
Q 1159 2381 1159 1747
Q 1159 1113 1420 752
Q 1681 391 2138 391
Q 2594 391 2855 752
Q 3116 1113 3116 1747
z
M 1159 2969
Q 1341 3281 1617 3432
Q 1894 3584 2278 3584
Q 2916 3584 3314 3078
Q 3713 2572 3713 1747
Q 3713 922 3314 415
Q 2916 -91 2278 -91
Q 1894 -91 1617 61
Q 1341 213 1159 525
L 1159 0
L 581 0
L 581 4863
L 1159 4863
L 1159 2969
z
" transform="scale(0.015625)"/>
      <path id="DejaVuSans-79" d="M 684 2619
L 1344 2619
L 1344 1825
L 684 1825
L 684 2619
z
" transform="scale(0.015625)"/>
      <path id="DejaVuSans-56" d="M 2834 3397
L 2834 2853
Q 2591 2978 2328 3040
Q 2066 3103 1784 3103
Q 1356 3103 1142 2972
Q 928 2841 928 2578
Q 928 2378 1081 2264
Q 1234 2150 1697 2047
L 1894 2003
Q 2506 1872 2764 1633
Q 3022 1394 3022 966
Q 3022 478 2636 193
Q 2250 -91 1575 -91
Q 1294 -91 989 -36
Q 684 19 347 128
L 347 722
Q 666 556 975 473
Q 1284 391 1588 391
Q 1994 391 2212 530
Q 2431 669 2431 922
Q 2431 1156 2273 1281
Q 2116 1406 1581 1522
L 1381 1569
Q 847 1681 609 1914
Q 372 2147 372 2553
Q 372 3047 722 3315
Q 1072 3584 1716 3584
Q 2034 3584 2315 3537
Q 2597 3491 2834 3397
z
" transform="scale(0.015625)"/>
      <path id="DejaVuSans-46" d="M 3122 3366
L 3122 2828
Q 2878 2963 2633 3030
Q 2388 3097 2138 3097
Q 1578 3097 1268 2742
Q 959 2388 959 1747
Q 959 1106 1268 751
Q 1578 397 2138 397
Q 2388 397 2633 464
Q 2878 531 3122 666
L 3122 134
Q 2881 22 2623 -34
Q 2366 -91 2075 -91
Q 1284 -91 818 406
Q 353 903 353 1747
Q 353 2603 823 3093
Q 1294 3584 2113 3584
Q 2378 3584 2631 3529
Q 2884 3475 3122 3366
z
" transform="scale(0.015625)"/>
      <path id="DejaVuSans-4b" d="M 3513 2113
L 3513 0
L 2938 0
L 2938 2094
Q 2938 2591 2744 2837
Q 2550 3084 2163 3084
Q 1697 3084 1428 2787
Q 1159 2491 1159 1978
L 1159 0
L 581 0
L 581 4863
L 1159 4863
L 1159 2956
Q 1366 3272 1645 3428
Q 1925 3584 2291 3584
Q 2894 3584 3203 3211
Q 3513 2838 3513 2113
z
" transform="scale(0.015625)"/>
      <path id="DejaVuSans-4a" d="M 2906 1791
Q 2906 2416 2648 2759
Q 2391 3103 1925 3103
Q 1463 3103 1205 2759
Q 947 2416 947 1791
Q 947 1169 1205 825
Q 1463 481 1925 481
Q 2391 481 2648 825
Q 2906 1169 2906 1791
z
M 3481 434
Q 3481 -459 3084 -895
Q 2688 -1331 1869 -1331
Q 1566 -1331 1297 -1286
Q 1028 -1241 775 -1147
L 775 -588
Q 1028 -725 1275 -790
Q 1522 -856 1778 -856
Q 2344 -856 2625 -561
Q 2906 -266 2906 331
L 2906 616
Q 2728 306 2450 153
Q 2172 0 1784 0
Q 1141 0 747 490
Q 353 981 353 1791
Q 353 2603 747 3093
Q 1141 3584 1784 3584
Q 2172 3584 2450 3431
Q 2728 3278 2906 2969
L 2906 3500
L 3481 3500
L 3481 434
z
" transform="scale(0.015625)"/>
      <path id="DejaVuSans-5c" d="M 2059 -325
Q 1816 -950 1584 -1140
Q 1353 -1331 966 -1331
L 506 -1331
L 506 -850
L 844 -850
Q 1081 -850 1212 -737
Q 1344 -625 1503 -206
L 1606 56
L 191 3500
L 800 3500
L 1894 763
L 2988 3500
L 3597 3500
L 2059 -325
z
" transform="scale(0.015625)"/>
     </defs>
     <use xlink:href="#DejaVuSans-2b"/>
     <use xlink:href="#DejaVuSans-52" transform="translate(75.203125 0)"/>
     <use xlink:href="#DejaVuSans-55" transform="translate(136.390625 0)"/>
     <use xlink:href="#DejaVuSans-4c" transform="translate(177.5 0)"/>
     <use xlink:href="#DejaVuSans-5d" transform="translate(205.28125 0)"/>
     <use xlink:href="#DejaVuSans-52" transform="translate(257.765625 0)"/>
     <use xlink:href="#DejaVuSans-51" transform="translate(318.953125 0)"/>
     <use xlink:href="#DejaVuSans-57" transform="translate(382.328125 0)"/>
     <use xlink:href="#DejaVuSans-44" transform="translate(421.53125 0)"/>
     <use xlink:href="#DejaVuSans-4f" transform="translate(482.8125 0)"/>
     <use xlink:href="#DejaVuSans-3" transform="translate(510.59375 0)"/>
     <use xlink:href="#DejaVuSans-50" transform="translate(542.375 0)"/>
     <use xlink:href="#DejaVuSans-48" transform="translate(639.78125 0)"/>
     <use xlink:href="#DejaVuSans-50" transform="translate(701.3125 0)"/>
     <use xlink:href="#DejaVuSans-45" transform="translate(798.71875 0)"/>
     <use xlink:href="#DejaVuSans-48" transform="translate(862.203125 0)"/>
     <use xlink:href="#DejaVuSans-55" transform="translate(923.734375 0)"/>
     <use xlink:href="#DejaVuSans-3" transform="translate(964.84375 0)"/>
     <use xlink:href="#DejaVuSans-79" transform="translate(996.625 0)"/>
     <use xlink:href="#DejaVuSans-3" transform="translate(1028.40625 0)"/>
     <use xlink:href="#DejaVuSans-56" transform="translate(1060.1875 0)"/>
     <use xlink:href="#DejaVuSans-57" transform="translate(1112.28125 0)"/>
     <use xlink:href="#DejaVuSans-55" transform="translate(1151.484375 0)"/>
     <use xlink:href="#DejaVuSans-48" transform="translate(1190.390625 0)"/>
     <use xlink:href="#DejaVuSans-57" transform="translate(1251.921875 0)"/>
     <use xlink:href="#DejaVuSans-46" transform="translate(1291.125 0)"/>
     <use xlink:href="#DejaVuSans-4b" transform="translate(1346.109375 0)"/>
     <use xlink:href="#DejaVuSans-4c" transform="translate(1409.484375 0)"/>
     <use xlink:href="#DejaVuSans-51" transform="translate(1437.265625 0)"/>
     <use xlink:href="#DejaVuSans-4a" transform="translate(1500.640625 0)"/>
     <use xlink:href="#DejaVuSans-3" transform="translate(1564.125 0)"/>
     <use xlink:href="#DejaVuSans-52" transform="translate(1595.90625 0)"/>
     <use xlink:href="#DejaVuSans-51" transform="translate(1657.09375 0)"/>
     <use xlink:href="#DejaVuSans-4f" transform="translate(1720.46875 0)"/>
     <use xlink:href="#DejaVuSans-5c" transform="translate(1748.25 0)"/>
    </g>
   </g>
   <g id="text_4">
    <!-- BAR · axial movement -->
    <g style="fill: #13243a" transform="translate(40.884758 31.119861) scale(0.12 -0.12)">
     <defs>
      <path id="DejaVuSans-Bold-25" d="M 2456 2859
Q 2741 2859 2887 2984
Q 3034 3109 3034 3353
Q 3034 3594 2887 3720
Q 2741 3847 2456 3847
L 1791 3847
L 1791 2859
L 2456 2859
z
M 2497 819
Q 2859 819 3042 972
Q 3225 1125 3225 1434
Q 3225 1738 3044 1889
Q 2863 2041 2497 2041
L 1791 2041
L 1791 819
L 2497 819
z
M 3616 2497
Q 4003 2384 4215 2081
Q 4428 1778 4428 1338
Q 4428 663 3972 331
Q 3516 0 2584 0
L 588 0
L 588 4666
L 2394 4666
Q 3366 4666 3802 4372
Q 4238 4078 4238 3431
Q 4238 3091 4078 2852
Q 3919 2613 3616 2497
z
" transform="scale(0.015625)"/>
      <path id="DejaVuSans-Bold-24" d="M 3419 850
L 1538 850
L 1241 0
L 31 0
L 1759 4666
L 3194 4666
L 4922 0
L 3713 0
L 3419 850
z
M 1838 1716
L 3116 1716
L 2478 3572
L 1838 1716
z
" transform="scale(0.015625)"/>
      <path id="DejaVuSans-Bold-35" d="M 2297 2597
Q 2675 2597 2839 2737
Q 3003 2878 3003 3200
Q 3003 3519 2839 3656
Q 2675 3794 2297 3794
L 1791 3794
L 1791 2597
L 2297 2597
z
M 1791 1766
L 1791 0
L 588 0
L 588 4666
L 2425 4666
Q 3347 4666 3776 4356
Q 4206 4047 4206 3378
Q 4206 2916 3982 2619
Q 3759 2322 3309 2181
Q 3556 2125 3751 1926
Q 3947 1728 4147 1325
L 4800 0
L 3519 0
L 2950 1159
Q 2778 1509 2601 1637
Q 2425 1766 2131 1766
L 1791 1766
z
" transform="scale(0.015625)"/>
      <path id="DejaVuSans-Bold-3" transform="scale(0.015625)"/>
      <path id="DejaVuSans-Bold-79" d="M 653 2828
L 1778 2828
L 1778 1619
L 653 1619
L 653 2828
z
" transform="scale(0.015625)"/>
      <path id="DejaVuSans-Bold-44" d="M 2106 1575
Q 1756 1575 1579 1456
Q 1403 1338 1403 1106
Q 1403 894 1545 773
Q 1688 653 1941 653
Q 2256 653 2472 879
Q 2688 1106 2688 1447
L 2688 1575
L 2106 1575
z
M 3816 1997
L 3816 0
L 2688 0
L 2688 519
Q 2463 200 2181 54
Q 1900 -91 1497 -91
Q 953 -91 614 226
Q 275 544 275 1050
Q 275 1666 698 1953
Q 1122 2241 2028 2241
L 2688 2241
L 2688 2328
Q 2688 2594 2478 2717
Q 2269 2841 1825 2841
Q 1466 2841 1156 2769
Q 847 2697 581 2553
L 581 3406
Q 941 3494 1303 3539
Q 1666 3584 2028 3584
Q 2975 3584 3395 3211
Q 3816 2838 3816 1997
z
" transform="scale(0.015625)"/>
      <path id="DejaVuSans-Bold-5b" d="M 1422 1791
L 159 3500
L 1344 3500
L 2059 2463
L 2784 3500
L 3969 3500
L 2706 1797
L 4031 0
L 2847 0
L 2059 1106
L 1281 0
L 97 0
L 1422 1791
z
" transform="scale(0.015625)"/>
      <path id="DejaVuSans-Bold-4c" d="M 538 3500
L 1656 3500
L 1656 0
L 538 0
L 538 3500
z
M 538 4863
L 1656 4863
L 1656 3950
L 538 3950
L 538 4863
z
" transform="scale(0.015625)"/>
      <path id="DejaVuSans-Bold-4f" d="M 538 4863
L 1656 4863
L 1656 0
L 538 0
L 538 4863
z
" transform="scale(0.015625)"/>
      <path id="DejaVuSans-Bold-50" d="M 3781 2919
Q 3994 3244 4286 3414
Q 4578 3584 4928 3584
Q 5531 3584 5847 3212
Q 6163 2841 6163 2131
L 6163 0
L 5038 0
L 5038 1825
Q 5041 1866 5042 1909
Q 5044 1953 5044 2034
Q 5044 2406 4934 2573
Q 4825 2741 4581 2741
Q 4263 2741 4089 2478
Q 3916 2216 3909 1719
L 3909 0
L 2784 0
L 2784 1825
Q 2784 2406 2684 2573
Q 2584 2741 2328 2741
Q 2006 2741 1831 2477
Q 1656 2213 1656 1722
L 1656 0
L 531 0
L 531 3500
L 1656 3500
L 1656 2988
Q 1863 3284 2130 3434
Q 2397 3584 2719 3584
Q 3081 3584 3359 3409
Q 3638 3234 3781 2919
z
" transform="scale(0.015625)"/>
      <path id="DejaVuSans-Bold-52" d="M 2203 2784
Q 1831 2784 1636 2517
Q 1441 2250 1441 1747
Q 1441 1244 1636 976
Q 1831 709 2203 709
Q 2569 709 2762 976
Q 2956 1244 2956 1747
Q 2956 2250 2762 2517
Q 2569 2784 2203 2784
z
M 2203 3584
Q 3106 3584 3614 3096
Q 4122 2609 4122 1747
Q 4122 884 3614 396
Q 3106 -91 2203 -91
Q 1297 -91 786 396
Q 275 884 275 1747
Q 275 2609 786 3096
Q 1297 3584 2203 3584
z
" transform="scale(0.015625)"/>
      <path id="DejaVuSans-Bold-59" d="M 97 3500
L 1216 3500
L 2088 1081
L 2956 3500
L 4078 3500
L 2700 0
L 1472 0
L 97 3500
z
" transform="scale(0.015625)"/>
      <path id="DejaVuSans-Bold-48" d="M 4031 1759
L 4031 1441
L 1416 1441
Q 1456 1047 1700 850
Q 1944 653 2381 653
Q 2734 653 3104 758
Q 3475 863 3866 1075
L 3866 213
Q 3469 63 3072 -14
Q 2675 -91 2278 -91
Q 1328 -91 801 392
Q 275 875 275 1747
Q 275 2603 792 3093
Q 1309 3584 2216 3584
Q 3041 3584 3536 3087
Q 4031 2591 4031 1759
z
M 2881 2131
Q 2881 2450 2695 2645
Q 2509 2841 2209 2841
Q 1884 2841 1681 2658
Q 1478 2475 1428 2131
L 2881 2131
z
" transform="scale(0.015625)"/>
      <path id="DejaVuSans-Bold-51" d="M 4056 2131
L 4056 0
L 2931 0
L 2931 347
L 2931 1631
Q 2931 2084 2911 2256
Q 2891 2428 2841 2509
Q 2775 2619 2662 2680
Q 2550 2741 2406 2741
Q 2056 2741 1856 2470
Q 1656 2200 1656 1722
L 1656 0
L 538 0
L 538 3500
L 1656 3500
L 1656 2988
Q 1909 3294 2193 3439
Q 2478 3584 2822 3584
Q 3428 3584 3742 3212
Q 4056 2841 4056 2131
z
" transform="scale(0.015625)"/>
      <path id="DejaVuSans-Bold-57" d="M 1759 4494
L 1759 3500
L 2913 3500
L 2913 2700
L 1759 2700
L 1759 1216
Q 1759 972 1856 886
Q 1953 800 2241 800
L 2816 800
L 2816 0
L 1856 0
Q 1194 0 917 276
Q 641 553 641 1216
L 641 2700
L 84 2700
L 84 3500
L 641 3500
L 641 4494
L 1759 4494
z
" transform="scale(0.015625)"/>
     </defs>
     <use xlink:href="#DejaVuSans-Bold-25"/>
     <use xlink:href="#DejaVuSans-Bold-24" transform="translate(76.21875 0)"/>
     <use xlink:href="#DejaVuSans-Bold-35" transform="translate(153.609375 0)"/>
     <use xlink:href="#DejaVuSans-Bold-3" transform="translate(230.609375 0)"/>
     <use xlink:href="#DejaVuSans-Bold-79" transform="translate(265.421875 0)"/>
     <use xlink:href="#DejaVuSans-Bold-3" transform="translate(303.40625 0)"/>
     <use xlink:href="#DejaVuSans-Bold-44" transform="translate(338.21875 0)"/>
     <use xlink:href="#DejaVuSans-Bold-5b" transform="translate(405.703125 0)"/>
     <use xlink:href="#DejaVuSans-Bold-4c" transform="translate(470.203125 0)"/>
     <use xlink:href="#DejaVuSans-Bold-44" transform="translate(504.484375 0)"/>
     <use xlink:href="#DejaVuSans-Bold-4f" transform="translate(571.96875 0)"/>
     <use xlink:href="#DejaVuSans-Bold-3" transform="translate(606.25 0)"/>
     <use xlink:href="#DejaVuSans-Bold-50" transform="translate(641.0625 0)"/>
     <use xlink:href="#DejaVuSans-Bold-52" transform="translate(745.265625 0)"/>
     <use xlink:href="#DejaVuSans-Bold-59" transform="translate(813.96875 0)"/>
     <use xlink:href="#DejaVuSans-Bold-48" transform="translate(879.15625 0)"/>
     <use xlink:href="#DejaVuSans-Bold-50" transform="translate(946.984375 0)"/>
     <use xlink:href="#DejaVuSans-Bold-48" transform="translate(1051.1875 0)"/>
     <use xlink:href="#DejaVuSans-Bold-51" transform="translate(1119.015625 0)"/>
     <use xlink:href="#DejaVuSans-Bold-57" transform="translate(1190.203125 0)"/>
    </g>
   </g>
  </g>
  <g id="axes_2">
   <g id="line2d_2">
    <path d="M 440.223689 198.533073
L 608.093429 198.533073
L 524.158559 88.772088
L 440.223689 198.533073
" clip-path="url(#p4d17bbbe92)" style="fill: none; stroke: #2563eb; stroke-width: 3; stroke-linecap: square"/>
    <g clip-path="url(#p4d17bbbe92)">
     <use xlink:href="#mf2b1df0b18" x="440.223689" y="198.533073" style="fill: #2563eb; stroke: #2563eb"/>
     <use xlink:href="#mf2b1df0b18" x="608.093429" y="198.533073" style="fill: #2563eb; stroke: #2563eb"/>
     <use xlink:href="#mf2b1df0b18" x="524.158559" y="88.772088" style="fill: #2563eb; stroke: #2563eb"/>
     <use xlink:href="#mf2b1df0b18" x="440.223689" y="198.533073" style="fill: #2563eb; stroke: #2563eb"/>
    </g>
   </g>
   <g id="patch_4">
    <path d="M 610.093755 198.533073
Q 627.465327 198.533073 642.824437 198.533073
" style="fill: none; stroke: #0f766e; stroke-width: 1.8; stroke-linecap: round"/>
    <path d="M 638.824437 196.533073
L 642.824437 198.533073
L 638.824437 200.533073
" style="fill: none; stroke: #0f766e; stroke-width: 1.8; stroke-linecap: round"/>
   </g>
   <g id="text_5">
    <!-- ux -->
    <g style="fill: #0f766e" transform="translate(650.706517 194.659156) scale(0.1 -0.1)">
     <use xlink:href="#DejaVuSans-58"/>
     <use xlink:href="#DejaVuSans-5b" transform="translate(63.375 0)"/>
    </g>
   </g>
   <g id="patch_5">
    <path d="M 608.093429 196.532156
Q 608.093429 174.319419 608.093429 154.119144
" style="fill: none; stroke: #0f766e; stroke-width: 1.8; stroke-linecap: round"/>
    <path d="M 606.093429 158.119144
L 608.093429 154.119144
L 610.093429 158.119144
" style="fill: none; stroke: #0f766e; stroke-width: 1.8; stroke-linecap: round"/>
   </g>
   <g id="text_6">
    <!-- uy -->
    <g style="fill: #0f766e" transform="translate(611.967346 146.235192) scale(0.1 -0.1)">
     <use xlink:href="#DejaVuSans-58"/>
     <use xlink:href="#DejaVuSans-5c" transform="translate(63.375 0)"/>
    </g>
   </g>
   <g id="text_7">
    <!-- Ideal pin joints · no member bending -->
    <g transform="translate(440.223689 227.587451) scale(0.1 -0.1)">
     <defs>
      <path id="DejaVuSans-2c" d="M 628 4666
L 1259 4666
L 1259 0
L 628 0
L 628 4666
z
" transform="scale(0.015625)"/>
      <path id="DejaVuSans-47" d="M 2906 2969
L 2906 4863
L 3481 4863
L 3481 0
L 2906 0
L 2906 525
Q 2725 213 2448 61
Q 2172 -91 1784 -91
Q 1150 -91 751 415
Q 353 922 353 1747
Q 353 2572 751 3078
Q 1150 3584 1784 3584
Q 2172 3584 2448 3432
Q 2725 3281 2906 2969
z
M 947 1747
Q 947 1113 1208 752
Q 1469 391 1925 391
Q 2381 391 2643 752
Q 2906 1113 2906 1747
Q 2906 2381 2643 2742
Q 2381 3103 1925 3103
Q 1469 3103 1208 2742
Q 947 2381 947 1747
z
" transform="scale(0.015625)"/>
      <path id="DejaVuSans-53" d="M 1159 525
L 1159 -1331
L 581 -1331
L 581 3500
L 1159 3500
L 1159 2969
Q 1341 3281 1617 3432
Q 1894 3584 2278 3584
Q 2916 3584 3314 3078
Q 3713 2572 3713 1747
Q 3713 922 3314 415
Q 2916 -91 2278 -91
Q 1894 -91 1617 61
Q 1341 213 1159 525
z
M 3116 1747
Q 3116 2381 2855 2742
Q 2594 3103 2138 3103
Q 1681 3103 1420 2742
Q 1159 2381 1159 1747
Q 1159 1113 1420 752
Q 1681 391 2138 391
Q 2594 391 2855 752
Q 3116 1113 3116 1747
z
" transform="scale(0.015625)"/>
      <path id="DejaVuSans-4d" d="M 603 3500
L 1178 3500
L 1178 -63
Q 1178 -731 923 -1031
Q 669 -1331 103 -1331
L -116 -1331
L -116 -844
L 38 -844
Q 366 -844 484 -692
Q 603 -541 603 -63
L 603 3500
z
M 603 4863
L 1178 4863
L 1178 4134
L 603 4134
L 603 4863
z
" transform="scale(0.015625)"/>
     </defs>
     <use xlink:href="#DejaVuSans-2c"/>
     <use xlink:href="#DejaVuSans-47" transform="translate(29.5 0)"/>
     <use xlink:href="#DejaVuSans-48" transform="translate(92.984375 0)"/>
     <use xlink:href="#DejaVuSans-44" transform="translate(154.515625 0)"/>
     <use xlink:href="#DejaVuSans-4f" transform="translate(215.796875 0)"/>
     <use xlink:href="#DejaVuSans-3" transform="translate(243.578125 0)"/>
     <use xlink:href="#DejaVuSans-53" transform="translate(275.359375 0)"/>
     <use xlink:href="#DejaVuSans-4c" transform="translate(338.84375 0)"/>
     <use xlink:href="#DejaVuSans-51" transform="translate(366.625 0)"/>
     <use xlink:href="#DejaVuSans-3" transform="translate(430 0)"/>
     <use xlink:href="#DejaVuSans-4d" transform="translate(461.78125 0)"/>
     <use xlink:href="#DejaVuSans-52" transform="translate(489.5625 0)"/>
     <use xlink:href="#DejaVuSans-4c" transform="translate(550.75 0)"/>
     <use xlink:href="#DejaVuSans-51" transform="translate(578.53125 0)"/>
     <use xlink:href="#DejaVuSans-57" transform="translate(641.90625 0)"/>
     <use xlink:href="#DejaVuSans-56" transform="translate(681.109375 0)"/>
     <use xlink:href="#DejaVuSans-3" transform="translate(733.203125 0)"/>
     <use xlink:href="#DejaVuSans-79" transform="translate(764.984375 0)"/>
     <use xlink:href="#DejaVuSans-3" transform="translate(796.765625 0)"/>
     <use xlink:href="#DejaVuSans-51" transform="translate(828.546875 0)"/>
     <use xlink:href="#DejaVuSans-52" transform="translate(891.921875 0)"/>
     <use xlink:href="#DejaVuSans-3" transform="translate(953.109375 0)"/>
     <use xlink:href="#DejaVuSans-50" transform="translate(984.890625 0)"/>
     <use xlink:href="#DejaVuSans-48" transform="translate(1082.296875 0)"/>
     <use xlink:href="#DejaVuSans-50" transform="translate(1143.828125 0)"/>
     <use xlink:href="#DejaVuSans-45" transform="translate(1241.234375 0)"/>
     <use xlink:href="#DejaVuSans-48" transform="translate(1304.71875 0)"/>
     <use xlink:href="#DejaVuSans-55" transform="translate(1366.25 0)"/>
     <use xlink:href="#DejaVuSans-3" transform="translate(1407.359375 0)"/>
     <use xlink:href="#DejaVuSans-45" transform="translate(1439.140625 0)"/>
     <use xlink:href="#DejaVuSans-48" transform="translate(1502.625 0)"/>
     <use xlink:href="#DejaVuSans-51" transform="translate(1564.15625 0)"/>
     <use xlink:href="#DejaVuSans-47" transform="translate(1627.53125 0)"/>
     <use xlink:href="#DejaVuSans-4c" transform="translate(1691.015625 0)"/>
     <use xlink:href="#DejaVuSans-51" transform="translate(1718.796875 0)"/>
     <use xlink:href="#DejaVuSans-4a" transform="translate(1782.171875 0)"/>
    </g>
   </g>
   <g id="text_8">
    <!-- TRUSS · axial member forces -->
    <g style="fill: #13243a" transform="translate(401.484518 31.119861) scale(0.12 -0.12)">
     <defs>
      <path id="DejaVuSans-Bold-37" d="M 31 4666
L 4331 4666
L 4331 3756
L 2784 3756
L 2784 0
L 1581 0
L 1581 3756
L 31 3756
L 31 4666
z
" transform="scale(0.015625)"/>
      <path id="DejaVuSans-Bold-38" d="M 588 4666
L 1791 4666
L 1791 1869
Q 1791 1291 1980 1042
Q 2169 794 2597 794
Q 3028 794 3217 1042
Q 3406 1291 3406 1869
L 3406 4666
L 4609 4666
L 4609 1869
Q 4609 878 4112 393
Q 3616 -91 2597 -91
Q 1581 -91 1084 393
Q 588 878 588 1869
L 588 4666
z
" transform="scale(0.015625)"/>
      <path id="DejaVuSans-Bold-36" d="M 3834 4519
L 3834 3531
Q 3450 3703 3084 3790
Q 2719 3878 2394 3878
Q 1963 3878 1756 3759
Q 1550 3641 1550 3391
Q 1550 3203 1689 3098
Q 1828 2994 2194 2919
L 2706 2816
Q 3484 2659 3812 2340
Q 4141 2022 4141 1434
Q 4141 663 3683 286
Q 3225 -91 2284 -91
Q 1841 -91 1394 -6
Q 947 78 500 244
L 500 1259
Q 947 1022 1364 901
Q 1781 781 2169 781
Q 2563 781 2772 912
Q 2981 1044 2981 1288
Q 2981 1506 2839 1625
Q 2697 1744 2272 1838
L 1806 1941
Q 1106 2091 782 2419
Q 459 2747 459 3303
Q 459 4000 909 4375
Q 1359 4750 2203 4750
Q 2588 4750 2994 4692
Q 3400 4634 3834 4519
z
" transform="scale(0.015625)"/>
      <path id="DejaVuSans-Bold-45" d="M 2400 722
Q 2759 722 2948 984
Q 3138 1247 3138 1747
Q 3138 2247 2948 2509
Q 2759 2772 2400 2772
Q 2041 2772 1848 2508
Q 1656 2244 1656 1747
Q 1656 1250 1848 986
Q 2041 722 2400 722
z
M 1656 2988
Q 1888 3294 2169 3439
Q 2450 3584 2816 3584
Q 3463 3584 3878 3070
Q 4294 2556 4294 1747
Q 4294 938 3878 423
Q 3463 -91 2816 -91
Q 2450 -91 2169 54
Q 1888 200 1656 506
L 1656 0
L 538 0
L 538 4863
L 1656 4863
L 1656 2988
z
" transform="scale(0.015625)"/>
      <path id="DejaVuSans-Bold-55" d="M 3138 2547
Q 2991 2616 2845 2648
Q 2700 2681 2553 2681
Q 2122 2681 1889 2404
Q 1656 2128 1656 1613
L 1656 0
L 538 0
L 538 3500
L 1656 3500
L 1656 2925
Q 1872 3269 2151 3426
Q 2431 3584 2822 3584
Q 2878 3584 2943 3579
Q 3009 3575 3134 3559
L 3138 2547
z
" transform="scale(0.015625)"/>
      <path id="DejaVuSans-Bold-49" d="M 2841 4863
L 2841 4128
L 2222 4128
Q 1984 4128 1890 4042
Q 1797 3956 1797 3744
L 1797 3500
L 2753 3500
L 2753 2700
L 1797 2700
L 1797 0
L 678 0
L 678 2700
L 122 2700
L 122 3500
L 678 3500
L 678 3744
Q 678 4316 997 4589
Q 1316 4863 1984 4863
L 2841 4863
z
" transform="scale(0.015625)"/>
      <path id="DejaVuSans-Bold-46" d="M 3366 3391
L 3366 2478
Q 3138 2634 2908 2709
Q 2678 2784 2431 2784
Q 1963 2784 1702 2511
Q 1441 2238 1441 1747
Q 1441 1256 1702 982
Q 1963 709 2431 709
Q 2694 709 2930 787
Q 3166 866 3366 1019
L 3366 103
Q 3103 6 2833 -42
Q 2563 -91 2291 -91
Q 1344 -91 809 395
Q 275 881 275 1747
Q 275 2613 809 3098
Q 1344 3584 2291 3584
Q 2566 3584 2833 3536
Q 3100 3488 3366 3391
z
" transform="scale(0.015625)"/>
      <path id="DejaVuSans-Bold-56" d="M 3272 3391
L 3272 2541
Q 2913 2691 2578 2766
Q 2244 2841 1947 2841
Q 1628 2841 1473 2761
Q 1319 2681 1319 2516
Q 1319 2381 1436 2309
Q 1553 2238 1856 2203
L 2053 2175
Q 2913 2066 3209 1816
Q 3506 1566 3506 1031
Q 3506 472 3093 190
Q 2681 -91 1863 -91
Q 1516 -91 1145 -36
Q 775 19 384 128
L 384 978
Q 719 816 1070 734
Q 1422 653 1784 653
Q 2113 653 2278 743
Q 2444 834 2444 1013
Q 2444 1163 2330 1236
Q 2216 1309 1875 1350
L 1678 1375
Q 931 1469 631 1722
Q 331 1975 331 2491
Q 331 3047 712 3315
Q 1094 3584 1881 3584
Q 2191 3584 2531 3537
Q 2872 3491 3272 3391
z
" transform="scale(0.015625)"/>
     </defs>
     <use xlink:href="#DejaVuSans-Bold-37"/>
     <use xlink:href="#DejaVuSans-Bold-35" transform="translate(68.21875 0)"/>
     <use xlink:href="#DejaVuSans-Bold-38" transform="translate(145.21875 0)"/>
     <use xlink:href="#DejaVuSans-Bold-36" transform="translate(226.421875 0)"/>
     <use xlink:href="#DejaVuSans-Bold-36" transform="translate(293.953125 0)"/>
     <use xlink:href="#DejaVuSans-Bold-3" transform="translate(365.96875 0)"/>
     <use xlink:href="#DejaVuSans-Bold-79" transform="translate(400.78125 0)"/>
     <use xlink:href="#DejaVuSans-Bold-3" transform="translate(438.765625 0)"/>
     <use xlink:href="#DejaVuSans-Bold-44" transform="translate(473.578125 0)"/>
     <use xlink:href="#DejaVuSans-Bold-5b" transform="translate(541.0625 0)"/>
     <use xlink:href="#DejaVuSans-Bold-4c" transform="translate(605.5625 0)"/>
     <use xlink:href="#DejaVuSans-Bold-44" transform="translate(639.84375 0)"/>
     <use xlink:href="#DejaVuSans-Bold-4f" transform="translate(707.328125 0)"/>
     <use xlink:href="#DejaVuSans-Bold-3" transform="translate(741.609375 0)"/>
     <use xlink:href="#DejaVuSans-Bold-50" transform="translate(776.421875 0)"/>
     <use xlink:href="#DejaVuSans-Bold-48" transform="translate(880.625 0)"/>
     <use xlink:href="#DejaVuSans-Bold-50" transform="translate(948.453125 0)"/>
     <use xlink:href="#DejaVuSans-Bold-45" transform="translate(1052.65625 0)"/>
     <use xlink:href="#DejaVuSans-Bold-48" transform="translate(1124.234375 0)"/>
     <use xlink:href="#DejaVuSans-Bold-55" transform="translate(1192.0625 0)"/>
     <use xlink:href="#DejaVuSans-Bold-3" transform="translate(1241.375 0)"/>
     <use xlink:href="#DejaVuSans-Bold-49" transform="translate(1276.1875 0)"/>
     <use xlink:href="#DejaVuSans-Bold-52" transform="translate(1319.6875 0)"/>
     <use xlink:href="#DejaVuSans-Bold-55" transform="translate(1388.390625 0)"/>
     <use xlink:href="#DejaVuSans-Bold-46" transform="translate(1437.703125 0)"/>
     <use xlink:href="#DejaVuSans-Bold-48" transform="translate(1496.984375 0)"/>
     <use xlink:href="#DejaVuSans-Bold-56" transform="translate(1564.8125 0)"/>
    </g>
   </g>
  </g>
  <g id="axes_3">
   <g id="patch_6">
    <path d="M 106.926113 380.8125
C 105.108362 375.818268 101.954637 371.417251 97.809746 368.090624
C 93.664855 364.763997 88.685568 362.637583 83.416286 361.943869
C 78.147004 361.250154 72.787026 362.015379 67.922374 364.155877
C 63.057722 366.296375 58.872391 369.731187 55.823975 374.084776
" clip-path="url(#p7b82cd3102)" style="fill: none; stroke: #b45309; stroke-width: 1.8; stroke-linejoin: miter"/>
   </g>
   <g id="line2d_3">
    <path d="M 79.623929 390.749682
L 241.037141 390.749682
" clip-path="url(#p7b82cd3102)" style="fill: none; stroke: #2563eb; stroke-width: 3; stroke-linecap: square"/>
    <g clip-path="url(#p7b82cd3102)">
     <use xlink:href="#mf2b1df0b18" x="79.623929" y="390.749682" style="fill: #2563eb; stroke: #2563eb"/>
     <use xlink:href="#mf2b1df0b18" x="241.037141" y="390.749682" style="fill: #2563eb; stroke: #2563eb"/>
    </g>
   </g>
   <g id="patch_7">
    <path d="M 241.037141 388.74778
Q 241.037141 364.921139 241.037141 343.10696
" style="fill: none; stroke: #0f766e; stroke-width: 1.8; stroke-linecap: round"/>
    <path d="M 239.037141 347.10696
L 241.037141 343.10696
L 243.037141 347.10696
" style="fill: none; stroke: #0f766e; stroke-width: 1.8; stroke-linecap: round"/>
   </g>
   <g id="text_9">
    <!-- uy -->
    <g style="fill: #0f766e" transform="translate(244.911058 335.223538) scale(0.1 -0.1)">
     <use xlink:href="#DejaVuSans-58"/>
     <use xlink:href="#DejaVuSans-5c" transform="translate(63.375 0)"/>
    </g>
   </g>
   <g id="patch_8">
    <path d="M 60.845141 368.341304
Q 58.962439 370.412276 57.831809 371.655969
" style="fill: none; stroke: #b45309; stroke-linecap: round"/>
    <path d="M 62.00238 370.041554
L 57.831809 371.655969
L 59.04262 367.350863
" style="fill: none; stroke: #b45309; stroke-linecap: round"/>
   </g>
   <g id="text_10">
    <!-- rz (+ CCW) -->
    <g style="fill: #b45309" transform="translate(37.656493 350.719206) scale(0.1 -0.1)">
     <defs>
      <path id="DejaVuSans-b" d="M 1984 4856
Q 1566 4138 1362 3434
Q 1159 2731 1159 2009
Q 1159 1288 1364 580
Q 1569 -128 1984 -844
L 1484 -844
Q 1016 -109 783 600
Q 550 1309 550 2009
Q 550 2706 781 3412
Q 1013 4119 1484 4856
L 1984 4856
z
" transform="scale(0.015625)"/>
      <path id="DejaVuSans-e" d="M 2944 4013
L 2944 2272
L 4684 2272
L 4684 1741
L 2944 1741
L 2944 0
L 2419 0
L 2419 1741
L 678 1741
L 678 2272
L 2419 2272
L 2419 4013
L 2944 4013
z
" transform="scale(0.015625)"/>
      <path id="DejaVuSans-26" d="M 4122 4306
L 4122 3641
Q 3803 3938 3442 4084
Q 3081 4231 2675 4231
Q 1875 4231 1450 3742
Q 1025 3253 1025 2328
Q 1025 1406 1450 917
Q 1875 428 2675 428
Q 3081 428 3442 575
Q 3803 722 4122 1019
L 4122 359
Q 3791 134 3420 21
Q 3050 -91 2638 -91
Q 1578 -91 968 557
Q 359 1206 359 2328
Q 359 3453 968 4101
Q 1578 4750 2638 4750
Q 3056 4750 3426 4639
Q 3797 4528 4122 4306
z
" transform="scale(0.015625)"/>
      <path id="DejaVuSans-3a" d="M 213 4666
L 850 4666
L 1831 722
L 2809 4666
L 3519 4666
L 4500 722
L 5478 4666
L 6119 4666
L 4947 0
L 4153 0
L 3169 4050
L 2175 0
L 1381 0
L 213 4666
z
" transform="scale(0.015625)"/>
      <path id="DejaVuSans-c" d="M 513 4856
L 1013 4856
Q 1481 4119 1714 3412
Q 1947 2706 1947 2009
Q 1947 1309 1714 600
Q 1481 -109 1013 -844
L 513 -844
Q 928 -128 1133 580
Q 1338 1288 1338 2009
Q 1338 2731 1133 3434
Q 928 4138 513 4856
z
" transform="scale(0.015625)"/>
     </defs>
     <use xlink:href="#DejaVuSans-55"/>
     <use xlink:href="#DejaVuSans-5d" transform="translate(41.109375 0)"/>
     <use xlink:href="#DejaVuSans-3" transform="translate(93.59375 0)"/>
     <use xlink:href="#DejaVuSans-b" transform="translate(125.375 0)"/>
     <use xlink:href="#DejaVuSans-e" transform="translate(164.390625 0)"/>
     <use xlink:href="#DejaVuSans-3" transform="translate(248.1875 0)"/>
     <use xlink:href="#DejaVuSans-26" transform="translate(279.96875 0)"/>
     <use xlink:href="#DejaVuSans-26" transform="translate(349.796875 0)"/>
     <use xlink:href="#DejaVuSans-3a" transform="translate(419.625 0)"/>
     <use xlink:href="#DejaVuSans-c" transform="translate(518.5 0)"/>
    </g>
   </g>
   <g id="text_11">
    <!-- At each node: uy and rz · no axial DOF -->
    <g transform="translate(79.623929 445.630175) scale(0.1 -0.1)">
     <defs>
      <path id="DejaVuSans-24" d="M 2188 4044
L 1331 1722
L 3047 1722
L 2188 4044
z
M 1831 4666
L 2547 4666
L 4325 0
L 3669 0
L 3244 1197
L 1141 1197
L 716 0
L 50 0
L 1831 4666
z
" transform="scale(0.015625)"/>
      <path id="DejaVuSans-1d" d="M 750 794
L 1409 794
L 1409 0
L 750 0
L 750 794
z
M 750 3309
L 1409 3309
L 1409 2516
L 750 2516
L 750 3309
z
" transform="scale(0.015625)"/>
      <path id="DejaVuSans-27" d="M 1259 4147
L 1259 519
L 2022 519
Q 2988 519 3436 956
Q 3884 1394 3884 2338
Q 3884 3275 3436 3711
Q 2988 4147 2022 4147
L 1259 4147
z
M 628 4666
L 1925 4666
Q 3281 4666 3915 4102
Q 4550 3538 4550 2338
Q 4550 1131 3912 565
Q 3275 0 1925 0
L 628 0
L 628 4666
z
" transform="scale(0.015625)"/>
      <path id="DejaVuSans-32" d="M 2522 4238
Q 1834 4238 1429 3725
Q 1025 3213 1025 2328
Q 1025 1447 1429 934
Q 1834 422 2522 422
Q 3209 422 3611 934
Q 4013 1447 4013 2328
Q 4013 3213 3611 3725
Q 3209 4238 2522 4238
z
M 2522 4750
Q 3503 4750 4090 4092
Q 4678 3434 4678 2328
Q 4678 1225 4090 567
Q 3503 -91 2522 -91
Q 1538 -91 948 565
Q 359 1222 359 2328
Q 359 3434 948 4092
Q 1538 4750 2522 4750
z
" transform="scale(0.015625)"/>
      <path id="DejaVuSans-29" d="M 628 4666
L 3309 4666
L 3309 4134
L 1259 4134
L 1259 2759
L 3109 2759
L 3109 2228
L 1259 2228
L 1259 0
L 628 0
L 628 4666
z
" transform="scale(0.015625)"/>
     </defs>
     <use xlink:href="#DejaVuSans-24"/>
     <use xlink:href="#DejaVuSans-57" transform="translate(66.65625 0)"/>
     <use xlink:href="#DejaVuSans-3" transform="translate(105.859375 0)"/>
     <use xlink:href="#DejaVuSans-48" transform="translate(137.640625 0)"/>
     <use xlink:href="#DejaVuSans-44" transform="translate(199.171875 0)"/>
     <use xlink:href="#DejaVuSans-46" transform="translate(260.453125 0)"/>
     <use xlink:href="#DejaVuSans-4b" transform="translate(315.4375 0)"/>
     <use xlink:href="#DejaVuSans-3" transform="translate(378.8125 0)"/>
     <use xlink:href="#DejaVuSans-51" transform="translate(410.59375 0)"/>
     <use xlink:href="#DejaVuSans-52" transform="translate(473.96875 0)"/>
     <use xlink:href="#DejaVuSans-47" transform="translate(535.15625 0)"/>
     <use xlink:href="#DejaVuSans-48" transform="translate(598.640625 0)"/>
     <use xlink:href="#DejaVuSans-1d" transform="translate(660.171875 0)"/>
     <use xlink:href="#DejaVuSans-3" transform="translate(693.859375 0)"/>
     <use xlink:href="#DejaVuSans-58" transform="translate(725.640625 0)"/>
     <use xlink:href="#DejaVuSans-5c" transform="translate(789.015625 0)"/>
     <use xlink:href="#DejaVuSans-3" transform="translate(848.203125 0)"/>
     <use xlink:href="#DejaVuSans-44" transform="translate(879.984375 0)"/>
     <use xlink:href="#DejaVuSans-51" transform="translate(941.265625 0)"/>
     <use xlink:href="#DejaVuSans-47" transform="translate(1004.640625 0)"/>
     <use xlink:href="#DejaVuSans-3" transform="translate(1068.125 0)"/>
     <use xlink:href="#DejaVuSans-55" transform="translate(1099.90625 0)"/>
     <use xlink:href="#DejaVuSans-5d" transform="translate(1141.015625 0)"/>
     <use xlink:href="#DejaVuSans-3" transform="translate(1193.5 0)"/>
     <use xlink:href="#DejaVuSans-79" transform="translate(1225.28125 0)"/>
     <use xlink:href="#DejaVuSans-3" transform="translate(1257.0625 0)"/>
     <use xlink:href="#DejaVuSans-51" transform="translate(1288.84375 0)"/>
     <use xlink:href="#DejaVuSans-52" transform="translate(1352.21875 0)"/>
     <use xlink:href="#DejaVuSans-3" transform="translate(1413.40625 0)"/>
     <use xlink:href="#DejaVuSans-44" transform="translate(1445.1875 0)"/>
     <use xlink:href="#DejaVuSans-5b" transform="translate(1506.46875 0)"/>
     <use xlink:href="#DejaVuSans-4c" transform="translate(1565.65625 0)"/>
     <use xlink:href="#DejaVuSans-44" transform="translate(1593.4375 0)"/>
     <use xlink:href="#DejaVuSans-4f" transform="translate(1654.71875 0)"/>
     <use xlink:href="#DejaVuSans-3" transform="translate(1682.5 0)"/>
     <use xlink:href="#DejaVuSans-27" transform="translate(1714.28125 0)"/>
     <use xlink:href="#DejaVuSans-32" transform="translate(1791.28125 0)"/>
     <use xlink:href="#DejaVuSans-29" transform="translate(1870 0)"/>
    </g>
   </g>
   <g id="text_12">
    <!-- BEAM · bending -->
    <g style="fill: #13243a" transform="translate(40.884758 255.619113) scale(0.12 -0.12)">
     <defs>
      <path id="DejaVuSans-Bold-28" d="M 588 4666
L 3834 4666
L 3834 3756
L 1791 3756
L 1791 2888
L 3713 2888
L 3713 1978
L 1791 1978
L 1791 909
L 3903 909
L 3903 0
L 588 0
L 588 4666
z
" transform="scale(0.015625)"/>
      <path id="DejaVuSans-Bold-30" d="M 588 4666
L 2119 4666
L 3181 2169
L 4250 4666
L 5778 4666
L 5778 0
L 4641 0
L 4641 3413
L 3566 897
L 2803 897
L 1728 3413
L 1728 0
L 588 0
L 588 4666
z
" transform="scale(0.015625)"/>
      <path id="DejaVuSans-Bold-47" d="M 2919 2988
L 2919 4863
L 4044 4863
L 4044 0
L 2919 0
L 2919 506
Q 2688 197 2409 53
Q 2131 -91 1766 -91
Q 1119 -91 703 423
Q 288 938 288 1747
Q 288 2556 703 3070
Q 1119 3584 1766 3584
Q 2128 3584 2408 3439
Q 2688 3294 2919 2988
z
M 2181 722
Q 2541 722 2730 984
Q 2919 1247 2919 1747
Q 2919 2247 2730 2509
Q 2541 2772 2181 2772
Q 1825 2772 1636 2509
Q 1447 2247 1447 1747
Q 1447 1247 1636 984
Q 1825 722 2181 722
z
" transform="scale(0.015625)"/>
      <path id="DejaVuSans-Bold-4a" d="M 2919 594
Q 2688 288 2409 144
Q 2131 0 1766 0
Q 1125 0 706 504
Q 288 1009 288 1791
Q 288 2575 706 3076
Q 1125 3578 1766 3578
Q 2131 3578 2409 3434
Q 2688 3291 2919 2981
L 2919 3500
L 4044 3500
L 4044 353
Q 4044 -491 3511 -936
Q 2978 -1381 1966 -1381
Q 1638 -1381 1331 -1331
Q 1025 -1281 716 -1178
L 716 -306
Q 1009 -475 1290 -558
Q 1572 -641 1856 -641
Q 2406 -641 2662 -400
Q 2919 -159 2919 353
L 2919 594
z
M 2181 2772
Q 1834 2772 1640 2515
Q 1447 2259 1447 1791
Q 1447 1309 1634 1061
Q 1822 813 2181 813
Q 2531 813 2725 1069
Q 2919 1325 2919 1791
Q 2919 2259 2725 2515
Q 2531 2772 2181 2772
z
" transform="scale(0.015625)"/>
     </defs>
     <use xlink:href="#DejaVuSans-Bold-25"/>
     <use xlink:href="#DejaVuSans-Bold-28" transform="translate(76.21875 0)"/>
     <use xlink:href="#DejaVuSans-Bold-24" transform="translate(144.53125 0)"/>
     <use xlink:href="#DejaVuSans-Bold-30" transform="translate(221.921875 0)"/>
     <use xlink:href="#DejaVuSans-Bold-3" transform="translate(321.4375 0)"/>
     <use xlink:href="#DejaVuSans-Bold-79" transform="translate(356.25 0)"/>
     <use xlink:href="#DejaVuSans-Bold-3" transform="translate(394.234375 0)"/>
     <use xlink:href="#DejaVuSans-Bold-45" transform="translate(429.046875 0)"/>
     <use xlink:href="#DejaVuSans-Bold-48" transform="translate(500.625 0)"/>
     <use xlink:href="#DejaVuSans-Bold-51" transform="translate(568.453125 0)"/>
     <use xlink:href="#DejaVuSans-Bold-47" transform="translate(639.640625 0)"/>
     <use xlink:href="#DejaVuSans-Bold-4c" transform="translate(711.21875 0)"/>
     <use xlink:href="#DejaVuSans-Bold-51" transform="translate(745.5 0)"/>
     <use xlink:href="#DejaVuSans-Bold-4a" transform="translate(816.6875 0)"/>
    </g>
   </g>
  </g>
  <g id="axes_4">
   <g id="patch_9">
    <path d="M 467.525873 316.247215
C 465.708122 311.252983 462.554397 306.851966 458.409506 303.525339
C 454.264615 300.198712 449.285328 298.072298 444.016046 297.378584
C 438.746764 296.68487 433.386786 297.450094 428.522134 299.590592
C 423.657482 301.73109 419.472151 305.165902 416.423735 309.519491
" clip-path="url(#p40ddf951d8)" style="fill: none; stroke: #b45309; stroke-width: 1.8; stroke-linejoin: miter"/>
   </g>
   <g id="line2d_4">
    <path d="M 440.223689 423.032325
L 440.223689 326.184398
L 601.636901 326.184398
L 601.636901 423.032325
" clip-path="url(#p40ddf951d8)" style="fill: none; stroke: #2563eb; stroke-width: 3; stroke-linecap: square"/>
    <g clip-path="url(#p40ddf951d8)">
     <use xlink:href="#mf2b1df0b18" x="440.223689" y="423.032325" style="fill: #2563eb; stroke: #2563eb"/>
     <use xlink:href="#mf2b1df0b18" x="440.223689" y="326.184398" style="fill: #2563eb; stroke: #2563eb"/>
     <use xlink:href="#mf2b1df0b18" x="601.636901" y="326.184398" style="fill: #2563eb; stroke: #2563eb"/>
     <use xlink:href="#mf2b1df0b18" x="601.636901" y="423.032325" style="fill: #2563eb; stroke: #2563eb"/>
    </g>
   </g>
   <g id="patch_10">
    <path d="M 603.637226 326.184398
Q 621.008798 326.184398 636.367909 326.184398
" style="fill: none; stroke: #0f766e; stroke-width: 1.8; stroke-linecap: round"/>
    <path d="M 632.367909 324.184398
L 636.367909 326.184398
L 632.367909 328.184398
" style="fill: none; stroke: #0f766e; stroke-width: 1.8; stroke-linecap: round"/>
   </g>
   <g id="text_13">
    <!-- ux -->
    <g style="fill: #0f766e" transform="translate(644.249989 322.310481) scale(0.1 -0.1)">
     <use xlink:href="#DejaVuSans-58"/>
     <use xlink:href="#DejaVuSans-5b" transform="translate(63.375 0)"/>
    </g>
   </g>
   <g id="patch_11">
    <path d="M 601.636901 324.183875
Q 601.636901 305.198128 601.636901 288.224842
" style="fill: none; stroke: #0f766e; stroke-width: 1.8; stroke-linecap: round"/>
    <path d="M 599.636901 292.224842
L 601.636901 288.224842
L 603.636901 292.224842
" style="fill: none; stroke: #0f766e; stroke-width: 1.8; stroke-linecap: round"/>
   </g>
   <g id="text_14">
    <!-- uy -->
    <g style="fill: #0f766e" transform="translate(605.510818 280.343045) scale(0.1 -0.1)">
     <use xlink:href="#DejaVuSans-58"/>
     <use xlink:href="#DejaVuSans-5c" transform="translate(63.375 0)"/>
    </g>
   </g>
   <g id="patch_12">
    <path d="M 421.444901 303.776019
Q 419.562199 305.846991 418.431569 307.090684
" style="fill: none; stroke: #b45309; stroke-linecap: round"/>
    <path d="M 422.60214 305.476269
L 418.431569 307.090684
L 419.64238 302.785578
" style="fill: none; stroke: #b45309; stroke-linecap: round"/>
   </g>
   <g id="text_15">
    <!-- rz (+ CCW) -->
    <g style="fill: #b45309" transform="translate(398.256253 286.153921) scale(0.1 -0.1)">
     <use xlink:href="#DejaVuSans-55"/>
     <use xlink:href="#DejaVuSans-5d" transform="translate(41.109375 0)"/>
     <use xlink:href="#DejaVuSans-3" transform="translate(93.59375 0)"/>
     <use xlink:href="#DejaVuSans-b" transform="translate(125.375 0)"/>
     <use xlink:href="#DejaVuSans-e" transform="translate(164.390625 0)"/>
     <use xlink:href="#DejaVuSans-3" transform="translate(248.1875 0)"/>
     <use xlink:href="#DejaVuSans-26" transform="translate(279.96875 0)"/>
     <use xlink:href="#DejaVuSans-26" transform="translate(349.796875 0)"/>
     <use xlink:href="#DejaVuSans-3a" transform="translate(419.625 0)"/>
     <use xlink:href="#DejaVuSans-c" transform="translate(518.5 0)"/>
    </g>
   </g>
   <g id="text_16">
    <!-- At each node: ux, uy and rz · rigid joints -->
    <g transform="translate(440.223689 452.086703) scale(0.1 -0.1)">
     <defs>
      <path id="DejaVuSans-f" d="M 750 794
L 1409 794
L 1409 256
L 897 -744
L 494 -744
L 750 256
L 750 794
z
" transform="scale(0.015625)"/>
     </defs>
     <use xlink:href="#DejaVuSans-24"/>
     <use xlink:href="#DejaVuSans-57" transform="translate(66.65625 0)"/>
     <use xlink:href="#DejaVuSans-3" transform="translate(105.859375 0)"/>
     <use xlink:href="#DejaVuSans-48" transform="translate(137.640625 0)"/>
     <use xlink:href="#DejaVuSans-44" transform="translate(199.171875 0)"/>
     <use xlink:href="#DejaVuSans-46" transform="translate(260.453125 0)"/>
     <use xlink:href="#DejaVuSans-4b" transform="translate(315.4375 0)"/>
     <use xlink:href="#DejaVuSans-3" transform="translate(378.8125 0)"/>
     <use xlink:href="#DejaVuSans-51" transform="translate(410.59375 0)"/>
     <use xlink:href="#DejaVuSans-52" transform="translate(473.96875 0)"/>
     <use xlink:href="#DejaVuSans-47" transform="translate(535.15625 0)"/>
     <use xlink:href="#DejaVuSans-48" transform="translate(598.640625 0)"/>
     <use xlink:href="#DejaVuSans-1d" transform="translate(660.171875 0)"/>
     <use xlink:href="#DejaVuSans-3" transform="translate(693.859375 0)"/>
     <use xlink:href="#DejaVuSans-58" transform="translate(725.640625 0)"/>
     <use xlink:href="#DejaVuSans-5b" transform="translate(789.015625 0)"/>
     <use xlink:href="#DejaVuSans-f" transform="translate(848.203125 0)"/>
     <use xlink:href="#DejaVuSans-3" transform="translate(879.984375 0)"/>
     <use xlink:href="#DejaVuSans-58" transform="translate(911.765625 0)"/>
     <use xlink:href="#DejaVuSans-5c" transform="translate(975.140625 0)"/>
     <use xlink:href="#DejaVuSans-3" transform="translate(1034.328125 0)"/>
     <use xlink:href="#DejaVuSans-44" transform="translate(1066.109375 0)"/>
     <use xlink:href="#DejaVuSans-51" transform="translate(1127.390625 0)"/>
     <use xlink:href="#DejaVuSans-47" transform="translate(1190.765625 0)"/>
     <use xlink:href="#DejaVuSans-3" transform="translate(1254.25 0)"/>
     <use xlink:href="#DejaVuSans-55" transform="translate(1286.03125 0)"/>
     <use xlink:href="#DejaVuSans-5d" transform="translate(1327.140625 0)"/>
     <use xlink:href="#DejaVuSans-3" transform="translate(1379.625 0)"/>
     <use xlink:href="#DejaVuSans-79" transform="translate(1411.40625 0)"/>
     <use xlink:href="#DejaVuSans-3" transform="translate(1443.1875 0)"/>
     <use xlink:href="#DejaVuSans-55" transform="translate(1474.96875 0)"/>
     <use xlink:href="#DejaVuSans-4c" transform="translate(1516.078125 0)"/>
     <use xlink:href="#DejaVuSans-4a" transform="translate(1543.859375 0)"/>
     <use xlink:href="#DejaVuSans-4c" transform="translate(1607.34375 0)"/>
     <use xlink:href="#DejaVuSans-47" transform="translate(1635.125 0)"/>
     <use xlink:href="#DejaVuSans-3" transform="translate(1698.609375 0)"/>
     <use xlink:href="#DejaVuSans-4d" transform="translate(1730.390625 0)"/>
     <use xlink:href="#DejaVuSans-52" transform="translate(1758.171875 0)"/>
     <use xlink:href="#DejaVuSans-4c" transform="translate(1819.359375 0)"/>
     <use xlink:href="#DejaVuSans-51" transform="translate(1847.140625 0)"/>
     <use xlink:href="#DejaVuSans-57" transform="translate(1910.515625 0)"/>
     <use xlink:href="#DejaVuSans-56" transform="translate(1949.71875 0)"/>
    </g>
   </g>
   <g id="text_17">
    <!-- FRAME · axial action + bending -->
    <g style="fill: #13243a" transform="translate(401.484518 255.619113) scale(0.12 -0.12)">
     <defs>
      <path id="DejaVuSans-Bold-29" d="M 588 4666
L 3834 4666
L 3834 3756
L 1791 3756
L 1791 2888
L 3713 2888
L 3713 1978
L 1791 1978
L 1791 0
L 588 0
L 588 4666
z
" transform="scale(0.015625)"/>
      <path id="DejaVuSans-Bold-e" d="M 3053 4013
L 3053 2375
L 4684 2375
L 4684 1638
L 3053 1638
L 3053 0
L 2309 0
L 2309 1638
L 678 1638
L 678 2375
L 2309 2375
L 2309 4013
L 3053 4013
z
" transform="scale(0.015625)"/>
     </defs>
     <use xlink:href="#DejaVuSans-Bold-29"/>
     <use xlink:href="#DejaVuSans-Bold-35" transform="translate(68.3125 0)"/>
     <use xlink:href="#DejaVuSans-Bold-24" transform="translate(145.3125 0)"/>
     <use xlink:href="#DejaVuSans-Bold-30" transform="translate(222.703125 0)"/>
     <use xlink:href="#DejaVuSans-Bold-28" transform="translate(322.21875 0)"/>
     <use xlink:href="#DejaVuSans-Bold-3" transform="translate(390.53125 0)"/>
     <use xlink:href="#DejaVuSans-Bold-79" transform="translate(425.34375 0)"/>
     <use xlink:href="#DejaVuSans-Bold-3" transform="translate(463.328125 0)"/>
     <use xlink:href="#DejaVuSans-Bold-44" transform="translate(498.140625 0)"/>
     <use xlink:href="#DejaVuSans-Bold-5b" transform="translate(565.625 0)"/>
     <use xlink:href="#DejaVuSans-Bold-4c" transform="translate(630.125 0)"/>
     <use xlink:href="#DejaVuSans-Bold-44" transform="translate(664.40625 0)"/>
     <use xlink:href="#DejaVuSans-Bold-4f" transform="translate(731.890625 0)"/>
     <use xlink:href="#DejaVuSans-Bold-3" transform="translate(766.171875 0)"/>
     <use xlink:href="#DejaVuSans-Bold-44" transform="translate(800.984375 0)"/>
     <use xlink:href="#DejaVuSans-Bold-46" transform="translate(868.46875 0)"/>
     <use xlink:href="#DejaVuSans-Bold-57" transform="translate(927.75 0)"/>
     <use xlink:href="#DejaVuSans-Bold-4c" transform="translate(975.546875 0)"/>
     <use xlink:href="#DejaVuSans-Bold-52" transform="translate(1009.828125 0)"/>
     <use xlink:href="#DejaVuSans-Bold-51" transform="translate(1078.53125 0)"/>
     <use xlink:href="#DejaVuSans-Bold-3" transform="translate(1149.71875 0)"/>
     <use xlink:href="#DejaVuSans-Bold-e" transform="translate(1184.53125 0)"/>
     <use xlink:href="#DejaVuSans-Bold-3" transform="translate(1268.328125 0)"/>
     <use xlink:href="#DejaVuSans-Bold-45" transform="translate(1303.140625 0)"/>
     <use xlink:href="#DejaVuSans-Bold-48" transform="translate(1374.71875 0)"/>
     <use xlink:href="#DejaVuSans-Bold-51" transform="translate(1442.546875 0)"/>
     <use xlink:href="#DejaVuSans-Bold-47" transform="translate(1513.734375 0)"/>
     <use xlink:href="#DejaVuSans-Bold-4c" transform="translate(1585.3125 0)"/>
     <use xlink:href="#DejaVuSans-Bold-51" transform="translate(1619.59375 0)"/>
     <use xlink:href="#DejaVuSans-Bold-4a" transform="translate(1690.78125 0)"/>
    </g>
   </g>
  </g>
  <g id="text_18">
   <!-- Four model families — global x right, y up; rotation counterclockwise -->
   <g style="fill: #13243a" transform="translate(136.070937 12.878209) scale(0.13 -0.13)">
    <defs>
     <path id="DejaVuSans-49" d="M 2375 4863
L 2375 4384
L 1825 4384
Q 1516 4384 1395 4259
Q 1275 4134 1275 3809
L 1275 3500
L 2222 3500
L 2222 3053
L 1275 3053
L 1275 0
L 697 0
L 697 3053
L 147 3053
L 147 3500
L 697 3500
L 697 3744
Q 697 4328 969 4595
Q 1241 4863 1831 4863
L 2375 4863
z
" transform="scale(0.015625)"/>
     <path id="DejaVuSans-af6" d="M 313 1978
L 6088 1978
L 6088 1528
L 313 1528
L 313 1978
z
" transform="scale(0.015625)"/>
     <path id="DejaVuSans-1e" d="M 750 3309
L 1409 3309
L 1409 2516
L 750 2516
L 750 3309
z
M 750 794
L 1409 794
L 1409 256
L 897 -744
L 494 -744
L 750 256
L 750 794
z
" transform="scale(0.015625)"/>
     <path id="DejaVuSans-4e" d="M 581 4863
L 1159 4863
L 1159 1991
L 2875 3500
L 3609 3500
L 1753 1863
L 3688 0
L 2938 0
L 1159 1709
L 1159 0
L 581 0
L 581 4863
z
" transform="scale(0.015625)"/>
     <path id="DejaVuSans-5a" d="M 269 3500
L 844 3500
L 1563 769
L 2278 3500
L 2956 3500
L 3675 769
L 4391 3500
L 4966 3500
L 4050 0
L 3372 0
L 2619 2869
L 1863 0
L 1184 0
L 269 3500
z
" transform="scale(0.015625)"/>
    </defs>
    <use xlink:href="#DejaVuSans-29"/>
    <use xlink:href="#DejaVuSans-52" transform="translate(53.953125 0)"/>
    <use xlink:href="#DejaVuSans-58" transform="translate(115.140625 0)"/>
    <use xlink:href="#DejaVuSans-55" transform="translate(178.515625 0)"/>
    <use xlink:href="#DejaVuSans-3" transform="translate(219.625 0)"/>
    <use xlink:href="#DejaVuSans-50" transform="translate(251.40625 0)"/>
    <use xlink:href="#DejaVuSans-52" transform="translate(348.8125 0)"/>
    <use xlink:href="#DejaVuSans-47" transform="translate(410 0)"/>
    <use xlink:href="#DejaVuSans-48" transform="translate(473.484375 0)"/>
    <use xlink:href="#DejaVuSans-4f" transform="translate(535.015625 0)"/>
    <use xlink:href="#DejaVuSans-3" transform="translate(562.796875 0)"/>
    <use xlink:href="#DejaVuSans-49" transform="translate(594.578125 0)"/>
    <use xlink:href="#DejaVuSans-44" transform="translate(629.78125 0)"/>
    <use xlink:href="#DejaVuSans-50" transform="translate(691.0625 0)"/>
    <use xlink:href="#DejaVuSans-4c" transform="translate(788.46875 0)"/>
    <use xlink:href="#DejaVuSans-4f" transform="translate(816.25 0)"/>
    <use xlink:href="#DejaVuSans-4c" transform="translate(844.03125 0)"/>
    <use xlink:href="#DejaVuSans-48" transform="translate(871.8125 0)"/>
    <use xlink:href="#DejaVuSans-56" transform="translate(933.34375 0)"/>
    <use xlink:href="#DejaVuSans-3" transform="translate(985.4375 0)"/>
    <use xlink:href="#DejaVuSans-af6" transform="translate(1017.21875 0)"/>
    <use xlink:href="#DejaVuSans-3" transform="translate(1117.21875 0)"/>
    <use xlink:href="#DejaVuSans-4a" transform="translate(1149 0)"/>
    <use xlink:href="#DejaVuSans-4f" transform="translate(1212.484375 0)"/>
    <use xlink:href="#DejaVuSans-52" transform="translate(1240.265625 0)"/>
    <use xlink:href="#DejaVuSans-45" transform="translate(1301.453125 0)"/>
    <use xlink:href="#DejaVuSans-44" transform="translate(1364.9375 0)"/>
    <use xlink:href="#DejaVuSans-4f" transform="translate(1426.21875 0)"/>
    <use xlink:href="#DejaVuSans-3" transform="translate(1454 0)"/>
    <use xlink:href="#DejaVuSans-5b" transform="translate(1485.78125 0)"/>
    <use xlink:href="#DejaVuSans-3" transform="translate(1544.96875 0)"/>
    <use xlink:href="#DejaVuSans-55" transform="translate(1576.75 0)"/>
    <use xlink:href="#DejaVuSans-4c" transform="translate(1617.859375 0)"/>
    <use xlink:href="#DejaVuSans-4a" transform="translate(1645.640625 0)"/>
    <use xlink:href="#DejaVuSans-4b" transform="translate(1709.125 0)"/>
    <use xlink:href="#DejaVuSans-57" transform="translate(1772.5 0)"/>
    <use xlink:href="#DejaVuSans-f" transform="translate(1811.703125 0)"/>
    <use xlink:href="#DejaVuSans-3" transform="translate(1843.484375 0)"/>
    <use xlink:href="#DejaVuSans-5c" transform="translate(1875.265625 0)"/>
    <use xlink:href="#DejaVuSans-3" transform="translate(1934.453125 0)"/>
    <use xlink:href="#DejaVuSans-58" transform="translate(1966.234375 0)"/>
    <use xlink:href="#DejaVuSans-53" transform="translate(2029.609375 0)"/>
    <use xlink:href="#DejaVuSans-1e" transform="translate(2093.09375 0)"/>
    <use xlink:href="#DejaVuSans-3" transform="translate(2126.78125 0)"/>
    <use xlink:href="#DejaVuSans-55" transform="translate(2158.5625 0)"/>
    <use xlink:href="#DejaVuSans-52" transform="translate(2197.46875 0)"/>
    <use xlink:href="#DejaVuSans-57" transform="translate(2258.65625 0)"/>
    <use xlink:href="#DejaVuSans-44" transform="translate(2297.859375 0)"/>
    <use xlink:href="#DejaVuSans-57" transform="translate(2359.140625 0)"/>
    <use xlink:href="#DejaVuSans-4c" transform="translate(2398.34375 0)"/>
    <use xlink:href="#DejaVuSans-52" transform="translate(2426.125 0)"/>
    <use xlink:href="#DejaVuSans-51" transform="translate(2487.3125 0)"/>
    <use xlink:href="#DejaVuSans-3" transform="translate(2550.6875 0)"/>
    <use xlink:href="#DejaVuSans-46" transform="translate(2582.46875 0)"/>
    <use xlink:href="#DejaVuSans-52" transform="translate(2637.453125 0)"/>
    <use xlink:href="#DejaVuSans-58" transform="translate(2698.640625 0)"/>
    <use xlink:href="#DejaVuSans-51" transform="translate(2762.015625 0)"/>
    <use xlink:href="#DejaVuSans-57" transform="translate(2825.390625 0)"/>
    <use xlink:href="#DejaVuSans-48" transform="translate(2864.59375 0)"/>
    <use xlink:href="#DejaVuSans-55" transform="translate(2926.125 0)"/>
    <use xlink:href="#DejaVuSans-46" transform="translate(2965.03125 0)"/>
    <use xlink:href="#DejaVuSans-4f" transform="translate(3020.015625 0)"/>
    <use xlink:href="#DejaVuSans-52" transform="translate(3047.796875 0)"/>
    <use xlink:href="#DejaVuSans-46" transform="translate(3108.984375 0)"/>
    <use xlink:href="#DejaVuSans-4e" transform="translate(3163.96875 0)"/>
    <use xlink:href="#DejaVuSans-5a" transform="translate(3221.875 0)"/>
    <use xlink:href="#DejaVuSans-4c" transform="translate(3303.65625 0)"/>
    <use xlink:href="#DejaVuSans-56" transform="translate(3331.4375 0)"/>
    <use xlink:href="#DejaVuSans-48" transform="translate(3383.53125 0)"/>
   </g>
  </g>
 </g>
 <defs>
  <clipPath id="p9a85bb36e3">
   <rect x="40.884758" y="37.119861" width="277.630725" height="203.380647"/>
  </clipPath>
  <clipPath id="p4d17bbbe92">
   <rect x="401.484518" y="37.119861" width="277.630725" height="203.380647"/>
  </clipPath>
  <clipPath id="p7b82cd3102">
   <rect x="40.884758" y="261.619113" width="277.630725" height="203.380647"/>
  </clipPath>
  <clipPath id="p40ddf951d8">
   <rect x="401.484518" y="261.619113" width="277.630725" height="203.380647"/>
  </clipPath>
 </defs>
</svg>
